<svg width="100%" height="100%" viewBox="0 0 100 100" preserveAspectRatio="none">
  <path d="M0,0 L100,0 L100,100 L0,100 Z M5,5 L95,5 L95,95 L5,95 Z" fill="none" stroke="white" stroke-width="2" />
  <!-- Ajoutez des courbes déchirées autour des bordures -->
  <path d="M0,0 Q5,10 10,0 T20,0 T30,0 T40,0 T50,0 T60,0 T70,0 T80,0 T90,0 T100,0" fill="none" stroke="white" stroke-width="2"/>
  <path d="M100,0 Q90,10 100,20 T100,30 T100,40 T100,50 T100,60 T100,70 T100,80 T100,90 T100,100" fill="none" stroke="white" stroke-width="2"/>
  <path d="M0,100 Q10,90 20,100 T30,100 T40,100 T50,100 T60,100 T70,100 T80,100 T90,100 T100,100" fill="none" stroke="white" stroke-width="2"/>
  <path d="M0,0 Q10,5 0,10 T0,20 T0,30 T0,40 T0,50 T0,60 T0,70 T0,80 T0,90 T0,100" fill="none" stroke="white" stroke-width="2"/>
</svg>
